HIERARCHY
ROOT Hip
{
	OFFSET 1.371367 -1.986324 0.221308
	CHANNELS 6 Xposition Yposition Zposition Xrotation Yrotation Zrotation
	JOINT LowerSpine
	{
		OFFSET -0.000000 0.154691 0.259874
		CHANNELS 6 Xposition Yposition Zposition Xrotation Yrotation Zrotation
		JOINT MiddleSpine
		{
			OFFSET 0.000000 -0.011152 0.237154
			CHANNELS 3 Xrotation Yrotation Zrotation
			JOINT Chest
			{
				OFFSET 0.000000 0.058786 0.293449
				CHANNELS 3 Xrotation Yrotation Zrotation
				JOINT Neck
				{
					OFFSET 0.000000 0.012376 0.661279
					CHANNELS 6 Xposition Yposition Zposition Xrotation Yrotation Zrotation
					JOINT Head
					{
						OFFSET -0.000003 -0.101572 0.373433
						CHANNELS 3 Xrotation Yrotation Zrotation
						End Site
						{
							OFFSET 0.000000 -0.001601 0.053629
						}
					}
				}
				JOINT LClavicle
				{
					OFFSET 0.060085 -0.196776 0.638167
					CHANNELS 6 Xposition Yposition Zposition Xrotation Yrotation Zrotation
					JOINT LShoulder
					{
						OFFSET 0.351028 0.148114 0.091535
						CHANNELS 3 Xrotation Yrotation Zrotation
						JOINT LForearm
						{
							OFFSET 0.828501 0.007178 -0.002937
							CHANNELS 3 Xrotation Yrotation Zrotation
							JOINT LHand
							{
								OFFSET 0.691144 0.004140 0.002005
								CHANNELS 3 Xrotation Yrotation Zrotation
								JOINT LFinger1
								{
									OFFSET 0.267868 -0.074399 0.023428
									CHANNELS 6 Xposition Yposition Zposition Xrotation Yrotation Zrotation
									JOINT LFinger11
									{
										OFFSET 0.100195 -0.017654 -0.024432
										CHANNELS 3 Xrotation Yrotation Zrotation
										JOINT LFinger12
										{
											OFFSET 0.068400 -0.012056 -0.016682
											CHANNELS 3 Xrotation Yrotation Zrotation
											End Site
											{
												OFFSET 0.050801 -0.008241 -0.015164
											}
										}
									}
								}
								JOINT LFinger2
								{
									OFFSET 0.271867 -0.006477 0.027054
									CHANNELS 6 Xposition Yposition Zposition Xrotation Yrotation Zrotation
									JOINT LFinger21
									{
										OFFSET 0.123886 0.000730 0.000345
										CHANNELS 3 Xrotation Yrotation Zrotation
										JOINT LFinger22
										{
											OFFSET 0.068670 0.000417 0.000210
											CHANNELS 3 Xrotation Yrotation Zrotation
											End Site
											{
												OFFSET 0.053519 -0.000073 -0.003780
											}
										}
									}
								}
								JOINT LFinger3
								{
									OFFSET 0.257651 0.060955 0.018054
									CHANNELS 6 Xposition Yposition Zposition Xrotation Yrotation Zrotation
									JOINT LFinger31
									{
										OFFSET 0.112414 0.007039 -0.005692
										CHANNELS 3 Xrotation Yrotation Zrotation
										JOINT LFinger32
										{
											OFFSET 0.064060 0.004023 -0.003222
											CHANNELS 3 Xrotation Yrotation Zrotation
											End Site
											{
												OFFSET 0.053193 0.002514 -0.006540
											}
										}
									}
								}
								JOINT LFinger4
								{
									OFFSET 0.239090 0.105269 -0.018169
									CHANNELS 6 Xposition Yposition Zposition Xrotation Yrotation Zrotation
									JOINT LFinger41
									{
										OFFSET 0.069146 0.019087 -0.014420
										CHANNELS 3 Xrotation Yrotation Zrotation
										JOINT LFinger42
										{
											OFFSET 0.050706 0.014006 -0.010559
											CHANNELS 3 Xrotation Yrotation Zrotation
											End Site
											{
												OFFSET 0.050514 0.011590 -0.013879
											}
										}
									}
								}
								JOINT LFinger0
								{
									OFFSET 0.055413 -0.042009 -0.041941
									CHANNELS 6 Xposition Yposition Zposition Xrotation Yrotation Zrotation
									JOINT LFinger01
									{
										OFFSET 0.103169 -0.077785 -0.033880
										CHANNELS 3 Xrotation Yrotation Zrotation
										JOINT LFinger02
										{
											OFFSET 0.067934 -0.048944 -0.024309
											CHANNELS 3 Xrotation Yrotation Zrotation
											End Site
											{
												OFFSET 0.042585 -0.029159 -0.014660
											}
										}
									}
								}
							}
						}
					}
				}
				JOINT RClavicle
				{
					OFFSET -0.060085 -0.196776 0.638167
					CHANNELS 6 Xposition Yposition Zposition Xrotation Yrotation Zrotation
					JOINT RShoulder
					{
						OFFSET -0.351089 0.148140 0.091551
						CHANNELS 3 Xrotation Yrotation Zrotation
						JOINT RForearm
						{
							OFFSET -0.828500 0.007180 -0.002938
							CHANNELS 3 Xrotation Yrotation Zrotation
							JOINT RHand
							{
								OFFSET -0.691143 0.004141 0.002005
								CHANNELS 3 Xrotation Yrotation Zrotation
								JOINT RFinger1
								{
									OFFSET -0.267870 -0.074399 0.023431
									CHANNELS 6 Xposition Yposition Zposition Xrotation Yrotation Zrotation
									JOINT RFinger11
									{
										OFFSET -0.100195 -0.017654 -0.024433
										CHANNELS 3 Xrotation Yrotation Zrotation
										JOINT RFinger12
										{
											OFFSET -0.068401 -0.012057 -0.016688
											CHANNELS 3 Xrotation Yrotation Zrotation
											End Site
											{
												OFFSET -0.050801 -0.008241 -0.015164
											}
										}
									}
								}
								JOINT RFinger2
								{
									OFFSET -0.271866 -0.006479 0.027054
									CHANNELS 6 Xposition Yposition Zposition Xrotation Yrotation Zrotation
									JOINT RFinger21
									{
										OFFSET -0.123886 0.000731 0.000348
										CHANNELS 3 Xrotation Yrotation Zrotation
										JOINT RFinger22
										{
											OFFSET -0.068670 0.000420 0.000210
											CHANNELS 3 Xrotation Yrotation Zrotation
											End Site
											{
												OFFSET -0.053519 -0.000073 -0.003780
											}
										}
									}
								}
								JOINT RFinger3
								{
									OFFSET -0.257650 0.060956 0.018057
									CHANNELS 6 Xposition Yposition Zposition Xrotation Yrotation Zrotation
									JOINT RFinger31
									{
										OFFSET -0.112414 0.007039 -0.005693
										CHANNELS 3 Xrotation Yrotation Zrotation
										JOINT RFinger32
										{
											OFFSET -0.064061 0.004024 -0.003223
											CHANNELS 3 Xrotation Yrotation Zrotation
											End Site
											{
												OFFSET -0.053193 0.002514 -0.006540
											}
										}
									}
								}
								JOINT RFinger4
								{
									OFFSET -0.239089 0.105269 -0.018169
									CHANNELS 6 Xposition Yposition Zposition Xrotation Yrotation Zrotation
									JOINT RFinger41
									{
										OFFSET -0.069146 0.019088 -0.014420
										CHANNELS 3 Xrotation Yrotation Zrotation
										JOINT RFinger42
										{
											OFFSET -0.050705 0.014006 -0.010556
											CHANNELS 3 Xrotation Yrotation Zrotation
											End Site
											{
												OFFSET -0.050514 0.011590 -0.013879
											}
										}
									}
								}
								JOINT RFinger0
								{
									OFFSET -0.055412 -0.042005 -0.041938
									CHANNELS 6 Xposition Yposition Zposition Xrotation Yrotation Zrotation
									JOINT RFinger01
									{
										OFFSET -0.103169 -0.077787 -0.033886
										CHANNELS 3 Xrotation Yrotation Zrotation
										JOINT RFinger02
										{
											OFFSET -0.067934 -0.048944 -0.024306
											CHANNELS 3 Xrotation Yrotation Zrotation
											End Site
											{
												OFFSET -0.042585 -0.029159 -0.014660
											}
										}
									}
								}
							}
						}
					}
				}
			}
		}
	}
	JOINT RThigh
	{
		OFFSET -0.307261 0.025205 0.117468
		CHANNELS 6 Xposition Yposition Zposition Xrotation Yrotation Zrotation
		JOINT RShin
		{
			OFFSET -0.022246 0.000001 -1.209169
			CHANNELS 3 Xrotation Yrotation Zrotation
			JOINT RFoot
			{
				OFFSET -0.000000 0.000001 -1.187332
				CHANNELS 3 Xrotation Yrotation Zrotation
				JOINT RToe
				{
					OFFSET -0.000000 -0.272887 -0.130497
					CHANNELS 3 Xrotation Yrotation Zrotation
					End Site
					{
						OFFSET 0.000000 -0.053653 0.000000
					}
				}
			}
		}
	}
	JOINT LThigh
	{
		OFFSET 0.307258 0.025206 0.117477
		CHANNELS 6 Xposition Yposition Zposition Xrotation Yrotation Zrotation
		JOINT LShin
		{
			OFFSET 0.022246 0.000000 -1.209177
			CHANNELS 3 Xrotation Yrotation Zrotation
			JOINT LFoot
			{
				OFFSET -0.000000 0.000001 -1.187332
				CHANNELS 3 Xrotation Yrotation Zrotation
				JOINT LToe
				{
					OFFSET 0.000000 -0.272891 -0.130500
					CHANNELS 3 Xrotation Yrotation Zrotation
					End Site
					{
						OFFSET 0.000000 -0.053653 0.000000
					}
				}
			}
		}
	}
}
MOTION
Frames: 5
Frame Time: 0.041667
0.499149 3.260536 2.206363 -5.345272 5.589328 165.390394 0.000000 0.154692 0.259874 0.000001 -0.000001 -0.000014 -2.194994 0.780148 -0.760496 -6.551277 3.367848 -2.915808 0.000000 0.012377 0.661279 -1.434235 10.114159 2.906037 2.377940 3.663744 0.025285 0.060085 -0.196775 0.638168 -0.000024 5.912814 0.000036 21.982117 14.969903 -36.521305 0.155436 -0.080487 -65.658930 -57.721130 36.233566 -6.029904 0.267867 -0.074399 0.023428 0.000003 0.000003 -0.000018 -0.000006 -0.000001 -0.000013 -0.000001 -0.000007 0.000013 0.271866 -0.006477 0.027054 0.000002 0.000002 -0.000012 0.000000 -0.000001 0.000013 0.000001 -0.000004 -0.000012 0.257650 0.060955 0.018055 -0.000001 0.000001 -0.000011 0.000001 0.000003 -0.000003 0.000004 -0.000003 -0.000003 0.239090 0.105268 -0.018168 -0.000000 -0.000008 -0.000022 -0.000003 0.000003 -0.000007 -0.000008 0.000012 -0.000007 0.055412 -0.042008 -0.041941 0.000001 -0.000015 -0.000016 -0.000010 0.000012 -0.000005 -0.000013 -0.000000 -0.000003 -0.060085 -0.196775 0.638168 0.000035 -16.521037 0.000036 65.640003 -44.410795 59.640481 -0.000133 -0.000062 -0.956067 -0.000101 -0.000000 0.000008 -0.267871 -0.074398 0.023431 0.000010 -0.000007 -0.000029 -0.000025 0.000054 -0.000068 -0.000012 0.000000 -0.000045 -0.271866 -0.006479 0.027054 -0.000003 -0.000017 -0.000046 -0.000007 -0.000002 -0.000036 -0.000005 -0.000017 0.000003 -0.257651 0.060955 0.018057 -0.000010 -0.000014 -0.000026 0.000002 -0.000008 0.000012 0.000001 -0.000003 0.000013 -0.239089 0.105269 -0.018169 0.000003 -0.000011 -0.000044 -0.000010 0.000011 -0.000020 0.000003 -0.000020 -0.000005 -0.055413 -0.042005 -0.041939 0.000001 -0.000007 -0.000039 0.000028 -0.000014 0.000040 0.000036 -0.000063 0.000020 -0.315006 0.012716 0.009269 0.233332 13.005908 28.029126 41.029592 -0.000057 -0.000128 1.143252 -0.982522 2.108519 -41.915768 -0.000149 -0.000348 0.318900 0.044047 0.281222 -1.454775 9.785564 -2.935479 4.307932 -0.000029 -0.000005 0.199208 0.367643 -0.775203 -0.154709 -0.000018 -0.000018 
0.499149 3.260536 2.206363 -5.345272 5.589328 165.390394 0.000000 0.154692 0.259874 0.000001 -0.000001 -0.000014 -2.194994 0.780148 -0.760496 -6.551277 3.367848 -2.915808 0.000000 0.012377 0.661279 -1.434235 10.114159 2.906037 2.377940 3.663744 0.025285 0.060085 -0.196775 0.638168 -0.000024 5.912814 0.000036 21.982117 14.969903 -36.521305 0.155436 -0.080487 -65.658930 -57.721130 36.233566 -6.029904 0.267867 -0.074399 0.023428 0.000003 0.000003 -0.000018 -0.000006 -0.000001 -0.000013 -0.000001 -0.000007 0.000013 0.271866 -0.006477 0.027054 0.000002 0.000002 -0.000012 0.000000 -0.000001 0.000013 0.000001 -0.000004 -0.000012 0.257650 0.060955 0.018055 -0.000001 0.000001 -0.000011 0.000001 0.000003 -0.000003 0.000004 -0.000003 -0.000003 0.239090 0.105268 -0.018168 -0.000000 -0.000008 -0.000022 -0.000003 0.000003 -0.000007 -0.000008 0.000012 -0.000007 0.055412 -0.042008 -0.041941 0.000001 -0.000015 -0.000016 -0.000010 0.000012 -0.000005 -0.000013 -0.000000 -0.000003 -0.060085 -0.196775 0.638168 0.000035 -16.521037 0.000036 65.640003 -44.410795 59.640481 -0.000133 -0.000062 -0.956067 -0.000101 -0.000000 0.000008 -0.267871 -0.074398 0.023431 0.000010 -0.000007 -0.000029 -0.000025 0.000054 -0.000068 -0.000012 0.000000 -0.000045 -0.271866 -0.006479 0.027054 -0.000003 -0.000017 -0.000046 -0.000007 -0.000002 -0.000036 -0.000005 -0.000017 0.000003 -0.257651 0.060955 0.018057 -0.000010 -0.000014 -0.000026 0.000002 -0.000008 0.000012 0.000001 -0.000003 0.000013 -0.239089 0.105269 -0.018169 0.000003 -0.000011 -0.000044 -0.000010 0.000011 -0.000020 0.000003 -0.000020 -0.000005 -0.055413 -0.042005 -0.041939 0.000001 -0.000007 -0.000039 0.000028 -0.000014 0.000040 0.000036 -0.000063 0.000020 -0.315006 0.012716 0.009269 0.233332 13.005908 28.029126 41.029592 -0.000057 -0.000128 1.143252 -0.982522 2.108519 -41.915768 -0.000149 -0.000348 0.318900 0.044047 0.281222 -1.454775 9.785564 -2.935479 4.307932 -0.000029 -0.000005 0.199208 0.367643 -0.775203 -0.154709 -0.000018 -0.000018 
0.489898 3.254202 2.210062 -5.288931 6.208029 165.244611 0.000000 0.154692 0.259873 0.000004 0.000002 -0.000013 -2.199114 0.971451 -0.718185 -6.722551 4.035769 -2.797148 0.000000 0.012377 0.661279 -1.445780 10.418297 2.984333 2.287531 2.919343 0.020816 0.060086 -0.196775 0.638168 -0.000031 6.025185 0.000024 17.923376 16.645518 -37.449835 0.139063 -0.058266 -55.996739 -65.437611 40.385870 -3.322446 0.267866 -0.074399 0.023428 0.000004 0.000002 -0.000018 -0.000006 0.000003 -0.000012 -0.000003 -0.000005 0.000012 0.271865 -0.006478 0.027054 0.000002 -0.000002 -0.000013 0.000001 -0.000003 0.000015 0.000001 -0.000004 -0.000013 0.257650 0.060955 0.018055 -0.000002 -0.000001 -0.000011 0.000004 0.000005 -0.000001 0.000004 -0.000004 -0.000001 0.239089 0.105268 -0.018168 -0.000000 -0.000008 -0.000021 -0.000008 -0.000001 -0.000007 -0.000007 0.000008 -0.000006 0.055412 -0.042008 -0.041941 0.000003 -0.000014 -0.000020 -0.000006 0.000015 -0.000002 -0.000015 -0.000001 -0.000006 -0.060085 -0.196775 0.638168 0.000038 -16.480034 0.000027 65.337125 -46.053848 60.047267 -0.003193 0.000010 -2.009513 -0.000102 0.000000 0.000013 -0.267871 -0.074398 0.023431 0.000010 -0.000007 -0.000028 -0.000019 0.000053 -0.000066 -0.000010 -0.000004 -0.000045 -0.271866 -0.006479 0.027055 -0.000005 -0.000017 -0.000045 -0.000007 -0.000002 -0.000036 -0.000003 -0.000019 0.000004 -0.257650 0.060955 0.018057 -0.000009 -0.000014 -0.000025 0.000001 -0.000006 0.000012 -0.000001 -0.000003 0.000013 -0.239089 0.105268 -0.018168 0.000003 -0.000013 -0.000044 -0.000009 0.000011 -0.000022 0.000006 -0.000023 -0.000008 -0.055412 -0.042005 -0.041939 -0.000005 -0.000009 -0.000041 0.000027 -0.000015 0.000037 0.000038 -0.000064 0.000019 -0.315049 0.013033 0.011379 -0.051336 14.521877 27.511886 40.841109 -0.000054 -0.000127 0.975036 -1.195052 2.554849 -41.851673 -0.000150 -0.000347 0.318931 0.043712 0.280838 -2.142741 10.570348 -3.884197 4.944517 -0.000029 -0.000007 0.965390 0.467259 -1.001606 -0.197247 -0.000020 -0.000022 
0.487915 3.250868 2.213357 -5.213620 6.412246 165.059595 0.000000 0.154692 0.259874 0.000012 0.000009 -0.000004 -2.220672 0.970660 -0.694832 -7.063226 3.966189 -2.619563 0.000000 0.012377 0.661278 -1.514974 10.959755 3.145413 2.375939 2.810086 0.017577 0.060086 -0.196775 0.638167 -0.000027 6.139614 0.000033 15.218549 18.036960 -38.900673 0.124423 -0.042413 -48.539156 -71.337289 43.051625 -0.158497 0.267866 -0.074399 0.023428 0.000006 0.000003 -0.000019 -0.000007 -0.000002 -0.000012 -0.000001 -0.000002 0.000014 0.271865 -0.006478 0.027054 0.000005 0.000001 -0.000015 -0.000001 -0.000003 0.000014 0.000001 -0.000000 -0.000013 0.257650 0.060955 0.018055 0.000001 -0.000004 -0.000012 0.000001 0.000008 -0.000002 0.000001 -0.000003 -0.000001 0.239090 0.105268 -0.018169 0.000003 -0.000011 -0.000021 -0.000006 -0.000001 -0.000006 -0.000012 0.000010 -0.000004 0.055412 -0.042008 -0.041941 0.000005 -0.000011 -0.000020 -0.000003 0.000013 -0.000002 -0.000014 0.000001 -0.000003 -0.060085 -0.196775 0.638168 0.000030 -16.451907 0.000015 65.255634 -46.458192 60.391740 -0.006964 -0.002245 -3.279117 -0.000099 -0.000000 0.000030 -0.267871 -0.074398 0.023431 0.000008 -0.000006 -0.000029 -0.000020 0.000053 -0.000067 -0.000008 -0.000002 -0.000044 -0.271866 -0.006479 0.027054 -0.000007 -0.000017 -0.000045 -0.000006 -0.000002 -0.000036 0.000001 -0.000018 0.000004 -0.257650 0.060955 0.018057 -0.000011 -0.000014 -0.000025 0.000001 -0.000007 0.000011 -0.000001 -0.000002 0.000014 -0.239089 0.105269 -0.018169 0.000003 -0.000012 -0.000046 -0.000008 0.000010 -0.000024 0.000007 -0.000021 -0.000006 -0.055412 -0.042005 -0.041939 0.000001 -0.000009 -0.000042 0.000027 -0.000016 0.000039 0.000040 -0.000064 0.000020 -0.315123 0.013560 0.014878 -0.223987 15.049458 27.188640 40.774723 -0.000053 -0.000127 1.062761 -1.259002 2.697490 -41.848272 -0.000150 -0.000347 0.318982 0.043151 0.280195 -2.290892 10.807924 -4.295144 5.040860 -0.000029 -0.000009 1.838493 0.523059 -1.143405 -0.471774 -0.000019 -0.000022 
0.488411 3.249490 2.214892 -5.049688 6.447944 165.054677 0.000000 0.154692 0.259874 0.000029 0.000021 0.000005 -2.208627 0.985691 -0.681958 -7.121092 3.946133 -2.540666 0.000000 0.012378 0.661279 -1.661330 11.068094 3.191063 2.354006 2.717130 0.017258 0.060085 -0.196774 0.638168 -0.000034 6.217035 0.000022 13.403194 19.309363 -40.053903 0.113733 -0.033888 -43.700766 -75.049927 44.480640 1.994498 0.267867 -0.074399 0.023428 0.000006 0.000007 -0.000015 -0.000004 0.000001 -0.000013 -0.000002 -0.000007 0.000013 0.271866 -0.006477 0.027053 -0.000000 0.000007 -0.000011 -0.000001 -0.000002 0.000015 0.000004 -0.000004 -0.000011 0.257651 0.060955 0.018055 -0.000000 0.000003 -0.000011 0.000003 0.000003 -0.000001 0.000008 -0.000003 -0.000001 0.239090 0.105269 -0.018169 -0.000001 -0.000006 -0.000020 -0.000004 0.000003 -0.000003 -0.000013 0.000015 -0.000007 0.055412 -0.042007 -0.041941 0.000005 -0.000013 -0.000019 -0.000006 0.000011 0.000001 -0.000015 -0.000001 0.000001 -0.060085 -0.196775 0.638168 0.000031 -16.419068 0.000022 65.328553 -46.529960 60.721700 -0.009222 -0.002452 -4.041693 -0.000100 0.000001 0.000056 -0.267871 -0.074398 0.023431 0.000012 -0.000006 -0.000029 -0.000026 0.000051 -0.000066 -0.000015 -0.000003 -0.000044 -0.271866 -0.006479 0.027054 -0.000005 -0.000017 -0.000045 -0.000009 -0.000002 -0.000036 -0.000002 -0.000017 0.000003 -0.257650 0.060955 0.018057 -0.000007 -0.000014 -0.000025 -0.000002 -0.000006 0.000012 -0.000004 -0.000003 0.000014 -0.239089 0.105269 -0.018169 0.000006 -0.000012 -0.000044 -0.000010 0.000009 -0.000023 0.000006 -0.000020 -0.000007 -0.055412 -0.042005 -0.041939 -0.000002 -0.000009 -0.000041 0.000029 -0.000019 0.000039 0.000040 -0.000065 0.000020 -0.315228 0.014303 0.019734 -0.117506 15.267462 26.635036 40.666991 -0.000056 -0.000127 1.484487 -1.260261 2.727235 -42.116582 -0.000150 -0.000350 0.319053 0.042365 0.279293 -2.140285 10.865771 -4.524202 4.872097 -0.000028 -0.000009 2.462962 0.584815 -1.296548 -0.703929 -0.000021 -0.000021 
